Coordinates
version=1
nRows=17
nColumns=40
inDegrees=yes

Units are S.I. units (second, meters, Newtons, ...)
Angles are in degrees.

endheader
time	pelvis_tilt	pelvis_list	pelvis_rotation	pelvis_tx	pelvis_ty	pelvis_tz	hip_flexion_r	hip_adduction_r	hip_rotation_r	knee_angle_r	knee_angle_r_beta	ankle_angle_r	subtalar_angle_r	mtp_angle_r	hip_flexion_l	hip_adduction_l	hip_rotation_l	knee_angle_l	knee_angle_l_beta	ankle_angle_l	subtalar_angle_l	mtp_angle_l	lumbar_extension	lumbar_bending	lumbar_rotation	arm_flex_r	arm_add_r	arm_rot_r	elbow_flex_r	pro_sup_r	wrist_flex_r	wrist_dev_r	arm_flex_l	arm_add_l	arm_rot_l	elbow_flex_l	pro_sup_l	wrist_flex_l	wrist_dev_l
     39.59000000	     -3.62643880	     -3.78384112	     -2.99185994	      0.92518281	      0.92202594	      0.47988551	     22.05054431	      1.29711867	    -10.63544374	     22.68659864	     22.68659864	      6.34781247	     -4.41767078	     -3.72126689	      2.84590159	     -7.97831831	     -8.80529662	     32.58111807	     32.58111807	     15.77909051	    -14.22466315	     -5.79198700	     -8.49629681	      6.53882567	      0.13465815	     -5.58167640	    -12.50633226	     -3.90621050	     29.94288995	     45.83193470	      0.00000000	      0.00000000	     10.51993909	    -13.85850654	    -13.77981354	     75.52216925	     47.54305908	      0.00000000	      0.00000000
     39.60371429	     -3.46277151	     -3.91427782	     -2.75795742	      0.92573993	      0.92290971	      0.48224098	     21.23120087	      1.46864668	    -11.06526790	     22.54428685	     22.54428685	      6.92113669	     -3.90173779	     -3.80019120	      4.36840545	     -8.62169490	     -8.15541649	     36.35915833	     36.35915833	     13.97642025	    -15.73003258	     -6.69913791	     -8.51102368	      6.74005649	      0.49451010	     -4.64429081	    -12.71956527	     -3.74628636	     31.05956068	     45.79380239	      0.00000000	      0.00000000	     10.48302780	    -13.45478502	    -12.72872200	     72.79267118	     47.44226740	      0.00000000	      0.00000000
     39.61742857	     -3.28975746	     -4.11804979	     -2.46918579	      0.92612556	      0.92365218	      0.48453879	     20.37954619	      1.73541445	    -11.48323320	     22.34291819	     22.34291819	      7.39828443	     -3.59920165	     -3.94876429	      6.07952327	     -9.39140007	     -7.53726559	     40.37915414	     40.37915414	     12.42926780	    -16.73346113	     -6.69723279	     -8.59689048	      6.97949581	      0.48047992	     -3.29001869	    -12.88554364	     -3.78525179	     31.81911489	     45.77801724	      0.00000000	      0.00000000	      9.74521186	    -13.08096876	    -12.22830761	     71.50798545	     47.38408984	      0.00000000	      0.00000000
     39.63114286	     -3.20476399	     -4.30280859	     -2.15290855	      0.92623461	      0.92417482	      0.48666348	     19.64512762	      1.96090563	    -11.96057419	     22.14146085	     22.14146085	      7.84531621	     -3.18494463	     -4.11045986	      8.00890358	    -10.09657123	     -6.82507020	     44.38886459	     44.38886459	     10.95915175	    -17.56182209	     -6.18993249	     -8.52412538	      7.21174591	      0.33451362	     -1.80915201	    -13.04137637	     -3.78950716	     32.75540348	     45.75345912	      0.00000000	      0.00000000	      9.06671572	    -12.79975703	    -11.59771585	     69.52691582	     47.30609079	      0.00000000	      0.00000000
     39.64485714	     -3.13868955	     -4.46853604	     -1.80769254	      0.92611189	      0.92468006	      0.48863358	     18.94498838	      2.15108293	    -12.51756643	     21.93088030	     21.93088030	      8.20936756	     -2.73578917	     -4.23000956	     10.03132610	    -10.75709525	     -6.13571589	     48.24847770	     48.24847770	      9.76517086	    -18.01530761	     -4.78349330	     -8.47567814	      7.39938602	      0.21987100	     -0.34557447	    -13.21837467	     -3.72576309	     33.82652943	     45.71916185	      0.00000000	      0.00000000	      8.54986566	    -12.52299348	    -10.80063199	     66.91002389	     47.20777065	      0.00000000	      0.00000000
     39.65857143	     -2.97545894	     -4.44536455	     -1.48220224	      0.92571639	      0.92537622	      0.49018345	     18.21811677	      2.08328718	    -13.07639681	     21.84795910	     21.84795910	      8.66715003	     -2.07757094	     -4.24763230	     12.12981678	    -10.92064631	     -5.14597900	     52.18159591	     52.18159591	     10.76566853	    -17.94536920	      2.40177682	     -8.47729765	      7.45484127	      1.38452809	      0.13860670	    -13.85370100	     -3.13103759	     35.95392705	     45.61128764	      0.00000000	      0.00000000	     10.03012728	    -11.82836675	     -8.45611589	     60.94895683	     46.97213033	      0.00000000	      0.00000000
     39.67228571	     -2.85130675	     -4.67666774	     -1.09074033	      0.92518154	      0.92585818	      0.49183060	     17.45951914	      2.37815799	    -13.49543993	     21.57676338	     21.57676338	      9.01506899	     -1.89384983	     -4.28588100	     14.05889075	    -11.58254240	     -4.53718579	     55.22791863	     55.22791863	      9.63694220	    -18.23480716	      3.12399899	     -8.58472924	      7.69948975	      1.28483984	      1.84811864	    -14.05982486	     -3.24887854	     37.00059822	     45.59072366	      0.00000000	      0.00000000	      9.06450767	    -11.46658294	     -7.92128209	     59.66927799	     46.90733294	      0.00000000	      0.00000000
     39.68600000	     -2.74662542	     -4.66076494	     -0.69971619	      0.92439060	      0.92653567	      0.49304884	     16.74545481	      2.34762555	    -14.00171200	     21.32924694	     21.32924694	      9.40514850	     -1.36753167	     -4.27036071	     16.09744967	    -11.71868902	     -3.75018749	     58.02986691	     58.02986691	     10.38491932	    -18.22268760	      8.48890348	     -8.59727712	      7.72389811	      1.62352594	      3.12926665	    -14.47453607	     -2.82889137	     38.81505585	     45.51628441	      0.00000000	      0.00000000	      9.53223355	    -11.01284055	     -6.32404349	     54.88822293	     46.73456012	      0.00000000	      0.00000000
     39.69971429	     -2.64778579	     -4.87286294	     -0.28280453	      0.92347975	      0.92709944	      0.49434436	     15.98296146	      2.63838965	    -14.40387623	     20.93461353	     20.93461353	      9.66450520	     -1.23765999	     -4.25047945	     17.95880894	    -12.23949793	     -3.20111871	     59.98966306	     59.98966306	      9.72543605	    -18.44209400	      8.93663895	     -8.63676731	      7.90444519	      1.53122279	      5.00773649	    -14.72604852	     -2.95499604	     39.87029437	     45.49710987	      0.00000000	      0.00000000	      8.51565239	    -10.58055512	     -5.85871163	     53.55432915	     46.67041543	      0.00000000	      0.00000000
     39.71342857	     -2.56245033	     -4.78128535	      0.13554115	      0.92229666	      0.92799829	      0.49517265	     15.22502721	      2.56641134	    -14.81554696	     20.48437068	     20.48437068	      9.93115146	     -0.86040115	     -4.31512722	     19.77388396	    -12.27548245	     -2.70994536	     61.35529812	     61.35529812	     10.15345881	    -18.40916180	     11.88074069	     -8.75277226	      7.87247224	      1.85161071	      6.55957643	    -15.10475225	     -2.44229776	     41.32846427	     45.43732142	      0.00000000	      0.00000000	      8.82529875	    -10.04315261	     -4.67704825	     48.84174562	     46.52805471	      0.00000000	      0.00000000
     39.72714286	     -2.50139492	     -4.84007624	      0.55875354	      0.92099762	      0.92877958	      0.49602583	     14.44344673	      2.72585662	    -15.11954330	     19.91130606	     19.91130606	     10.14602029	     -0.72225504	     -4.27817222	     21.48097943	    -12.50438786	     -2.33831705	     61.97762052	     61.97762052	      9.93571144	    -18.51273509	     12.12219179	     -8.86921001	      7.92200355	      1.68673915	      8.58435973	    -15.25243336	     -2.56194936	     42.51037233	     45.41410176	      0.00000000	      0.00000000	      7.74225834	     -9.66814006	     -4.27557588	     47.36084690	     46.46563591	      0.00000000	      0.00000000
     39.74085714	     -2.45063138	     -4.73912937	      0.95209726	      0.91954633	      0.92969178	      0.49660829	     13.67232160	      2.68350350	    -15.46871271	     19.32072572	     19.32072572	     10.27990278	     -0.42292298	     -4.50592508	     23.05320942	    -12.46319649	     -2.05076275	     61.92686830	     61.92686830	     10.21408154	    -18.51379820	     13.16791794	     -8.97077047	      7.83243763	      1.98620365	     10.31363160	    -15.66698232	     -2.11036821	     43.91023795	     45.36280296	      0.00000000	      0.00000000	      7.77228160	     -9.06870403	     -3.48766723	     43.27453021	     46.35910972	      0.00000000	      0.00000000
     39.75457143	     -2.42694862	     -4.67891171	      1.36224767	      0.91795914	      0.93058760	      0.49704954	     12.88218173	      2.72818718	    -15.73718280	     18.59591229	     18.59591229	     10.38656331	     -0.28940729	     -4.46919277	     24.50797591	    -12.41610093	     -1.81735852	     61.16600037	     61.16600037	     10.28606998	    -18.55066942	     13.26018739	     -9.09729995	      7.77389656	      1.81158310	     12.41477206	    -15.73655071	     -2.20365142	     45.25041918	     45.33375653	      0.00000000	      0.00000000	      6.66679008	     -8.73421462	     -3.15063191	     41.63700910	     46.29900843	      0.00000000	      0.00000000
     39.76828571	     -2.45692138	     -4.55705606	      1.73993690	      0.91628480	      0.93137451	      0.49730043	     12.16206068	      2.68115631	    -16.06853778	     17.89206724	     17.89206724	     10.38996093	     -0.02444490	     -4.88834218	     25.84218498	    -12.24814830	     -1.69873891	     59.74494090	     59.74494090	     10.43858681	    -18.53286314	     13.28626336	     -9.14987903	      7.67818645	      2.14059658	     14.11065308	    -16.20755573	     -1.78800625	     46.86759857	     45.27958234	      0.00000000	      0.00000000	      6.53819722	     -8.14260351	     -2.59904177	     37.96031449	     46.21567439	      0.00000000	      0.00000000
     39.78200000	     -2.50119995	     -4.45544716	      2.09856108	      0.91454760	      0.93209151	      0.49747484	     11.44377634	      2.69521622	    -16.25392718	     17.14065020	     17.14065020	     10.48644370	      0.06239548	     -4.88674480	     27.01150643	    -12.03463908	     -1.60808795	     57.71523439	     57.71523439	     10.63568024	    -18.50792269	     13.29304565	     -9.26960668	      7.58643953	      2.09163551	     16.15943196	    -16.30386816	     -1.92157984	     48.27822311	     45.25021721	      0.00000000	      0.00000000	      5.36638890	     -7.82819435	     -2.36743048	     36.62956784	     46.16503138	      0.00000000	      0.00000000
     39.79571429	     -2.56439837	     -4.34422957	      2.45179623	      0.91280571	      0.93272361	      0.49749831	     10.74811499	      2.68829556	    -16.47645506	     16.39729501	     16.39729501	     10.52741798	      0.23117049	     -4.96901158	     27.99128253	    -11.72210532	     -1.52627492	     55.09546489	     55.09546489	     10.80229187	    -18.43122148	     13.24370867	     -9.35070753	      7.48349692	      2.04945884	     18.17331950	    -16.39221381	     -1.96328792	     49.80181310	     45.21246403	      0.00000000	      0.00000000	      4.28167826	     -7.53367008	     -2.11794380	     35.05777373	     46.11217709	      0.00000000	      0.00000000
     39.80942857	     -2.68253569	     -4.26722949	      2.76773680	      0.91100763	      0.93309494	      0.49741642	     10.13185679	      2.69077507	    -16.78068397	     15.66570180	     15.66570180	     10.37970574	      0.47743014	     -5.74445846	     28.81942636	    -11.41831131	     -1.51269961	     51.94834796	     51.94834796	     10.61666557	    -18.34165867	     12.17832378	     -9.38306593	      7.42409893	      2.56604402	     19.55543622	    -17.05988443	     -1.52177164	     52.25887702	     45.13393836	      0.00000000	      0.00000000	      4.00946081	     -7.03417268	     -1.66079977	     32.02064784	     46.03683792	      0.00000000	      0.00000000
